<svg version="1.1" preserveAspectRatio="none" xmlns="http://www.w3.org/2000/svg" width="500" height="500" viewBox="0 0 500 500"><rect width="100%" height="100%" fill="#FFFFFF" fill-opacity="1"/><svg viewBox="65.5582 158 454.8406 150" width="333" height="109.81869252656865" x="83.5px" y="195.0907px" xmlns="http://www.w3.org/2000/svg" xmlns:xlink="http://www.w3.org/1999/xlink" preserveAspectRatio="none"><defs></defs><style>.aIptOCySncolors-3 {fill:#72849C;fill-opacity:1;}.aIptOCySncolors-4 {fill:#6F6F6F;fill-opacity:1;}.aIptOCySncolors-5 {fill:#860C0C;fill-opacity:1;}.aIptOCySncolors-6 {fill:#650E0E;fill-opacity:1;}.aIptOCySncolors-7 {fill:#373B59;fill-opacity:1;}.companyName {fill:#D03737;fill-opacity:1;}.icon1 {fill:#0C1248;fill-opacity:1;}.icon2 {fill:#D03737;fill-opacity:1;}.icon3 {fill:#B2B2B2;fill-opacity:1;}.icon3-str {stroke:#B2B2B2;stroke-opacity:1;}.shapeStroke-str {stroke:#0C1248;stroke-opacity:1;}</style><g opacity="1" transform="rotate(0 65.5582 173)">
<svg width="139.2201" height="120" x="65.5582" y="173" version="1.1" preserveAspectRatio="none" viewBox="2.9997193813323975 4.00029993057251 17.982580184936523 15.5">
  <g transform="matrix(1 0 0 1 0 0)" class="icon1"><title>geo-1</title><desc>Created with Sketch.</desc><g stroke-width="1" fill-rule="evenodd"><g><path d="M7.2453,4.7573 L11.4413,11.7503 L7.2453,18.7423 L3.5163,11.7503 L7.2453,4.7573 Z M16.0913,4.5003 L20.2913,11.5003 L11.8743,11.5003 L7.6743,4.5003 L16.0913,4.5003 Z M20.9703,11.7793 C20.9723,11.7683 20.9823,11.7613 20.9823,11.7503 C20.9823,11.7383 20.9723,11.7323 20.9703,11.7203 C20.9683,11.6973 20.9613,11.6803 20.9523,11.6583 C20.9473,11.6463 20.9533,11.6333 20.9473,11.6213 L16.4473,4.1213 C16.4413,4.1113 16.4283,4.1113 16.4213,4.1033 C16.4013,4.0763 16.3763,4.0643 16.3463,4.0473 C16.3173,4.0313 16.2943,4.0163 16.2623,4.0123 C16.2513,4.0103 16.2443,4.0003 16.2323,4.0003 L7.2323,4.0003 C7.2193,4.0003 7.2103,4.0123 7.1973,4.0143 C7.1743,4.0183 7.1573,4.0213 7.1363,4.0303 C7.1253,4.0353 7.1143,4.0293 7.1043,4.0353 C7.0943,4.0413 7.0943,4.0543 7.0853,4.0613 C7.0663,4.0753 7.0553,4.0893 7.0413,4.1083 C7.0333,4.1183 7.0183,4.1203 7.0123,4.1323 L3.0123,11.6323 C3.0073,11.6403 3.0133,11.6493 3.0093,11.6573 C2.9963,11.6883 3.0003,11.7163 3.0003,11.7503 C3.0003,11.7833 2.9963,11.8123 3.0093,11.8423 C3.0133,11.8503 3.0073,11.8593 3.0123,11.8673 L7.0123,19.3673 C7.0203,19.3833 7.0353,19.3903 7.0463,19.4033 C7.0563,19.4163 7.0643,19.4253 7.0773,19.4353 C7.0863,19.4443 7.0923,19.4563 7.1033,19.4633 C7.1033,19.4633 7.1033,19.4643 7.1043,19.4643 L7.1043,19.4643 C7.1433,19.4873 7.1873,19.5003 7.2323,19.5003 L16.2323,19.5003 C16.2903,19.5003 16.3423,19.4733 16.3883,19.4363 C16.3993,19.4263 16.4083,19.4183 16.4173,19.4063 C16.4273,19.3963 16.4393,19.3903 16.4473,19.3783 L20.9473,11.8783 C20.9533,11.8663 20.9473,11.8533 20.9523,11.8413 C20.9613,11.8193 20.9683,11.8023 20.9703,11.7793 L20.9703,11.7793 Z"></path></g></g></g>
</svg>
</g><g opacity="1" transform="rotate(0 268.7783 173)">
<svg width="251.6205" height="120" x="268.7783" y="173" version="1.1" preserveAspectRatio="none" viewBox="3.2 -28.48 148.8 70.96000000000001">
  <g transform="matrix(1 0 0 1 0 0)" class="companyName"><path id="id-D6z1nYkh14" d="M13.56-20L10.12-20L10.12 3.68Q10.12 4.60 10.04 5.46Q9.96 6.32 9.70 7Q9.44 7.68 8.94 8.08Q8.44 8.48 7.64 8.48L7.64 8.48Q6.64 8.48 6.14 8Q5.64 7.52 5.20 6.48L5.20 6.48L3.20 8.04Q4.08 9.20 5.26 9.60Q6.44 10 7.72 10L7.72 10Q8.60 10 9.62 9.68Q10.64 9.36 11.52 8.46Q12.40 7.56 12.98 5.98Q13.56 4.40 13.56 1.88L13.56 1.88L13.56-20ZM9.72-26.32L9.72-26.32Q9.72-25.44 10.34-24.80Q10.96-24.16 11.88-24.16L11.88-24.16Q12.76-24.16 13.40-24.80Q14.04-25.44 14.04-26.32L14.04-26.32Q14.04-27.20 13.40-27.84Q12.76-28.48 11.88-28.48L11.88-28.48Q10.96-28.48 10.34-27.84Q9.72-27.20 9.72-26.32Z M21.52-20L18.04-20L24.96 0L27.12 0L31.76-13.40L31.92-13.40L37.12 0L39 0L46.28-20L44.20-20L38.76-5.04L38.60-5.04L32.92-20L32.12-20L26.88-4.92L26.72-4.92L21.52-20Z M54.96-20L51.56-20L51.56 0L54.96 0L54.96-20ZM51.08-26.32L51.08-26.32Q51.08-25.44 51.72-24.80Q52.36-24.16 53.24-24.16L53.24-24.16Q54.12-24.16 54.76-24.80Q55.40-25.44 55.40-26.32L55.40-26.32Q55.40-27.20 54.76-27.84Q54.12-28.48 53.24-28.48L53.24-28.48Q52.36-28.48 51.72-27.84Q51.08-27.20 51.08-26.32Z M64.08-18.40L60.60-18.40L60.60-20L64.08-20L64.08-26.16L67.48-26.16L67.48-20L72.32-20L72.32-18.40L67.48-18.40L67.48-5.12Q67.48-4.64 67.52-4.02Q67.56-3.40 67.76-2.86Q67.96-2.32 68.38-1.96Q68.80-1.60 69.56-1.60L69.56-1.60Q70.52-1.60 71.16-2.32Q71.80-3.04 72.20-3.88L72.20-3.88L74.08-1.96Q72.12 0 69.64 0L69.64 0Q68.60 0 67.60-0.36Q66.60-0.72 65.82-1.46Q65.04-2.20 64.56-3.36Q64.08-4.52 64.08-6.08L64.08-6.08L64.08-18.40Z M80.16-9.12L95.36-9.12L95.36-9.96Q95.36-12.64 94.60-14.60Q93.84-16.56 92.54-17.84Q91.24-19.12 89.52-19.76Q87.80-20.40 85.88-20.40L85.88-20.40Q83.84-20.40 82.12-19.70Q80.40-19 79.12-17.66Q77.84-16.32 77.12-14.42Q76.40-12.52 76.40-10.12L76.40-10.12Q76.40-8.12 77.02-6.22Q77.64-4.32 78.90-2.82Q80.16-1.32 82.10-0.42Q84.04 0.48 86.68 0.48L86.68 0.48Q89.24 0.48 91.40-0.42Q93.56-1.32 95.16-3L95.16-3L93.88-4.28Q93.04-3.56 92.30-2.96Q91.56-2.36 90.80-1.96Q90.04-1.56 89.22-1.34Q88.40-1.12 87.40-1.12L87.40-1.12Q86.28-1.12 85.02-1.46Q83.76-1.80 82.68-2.68Q81.60-3.56 80.88-5.12Q80.16-6.68 80.16-9.12L80.16-9.12ZM91.88-10.72L80.16-10.72Q80.16-12.32 80.50-13.82Q80.84-15.32 81.54-16.48Q82.24-17.64 83.32-18.34Q84.40-19.04 85.88-19.04L85.88-19.04Q88.72-19.04 90.30-16.82Q91.88-14.60 91.88-10.72L91.88-10.72Z M111.04-15.44L113.32-15.44Q113.32-16.52 112.76-17.44Q112.20-18.36 111.22-19.02Q110.24-19.68 108.94-20.06Q107.64-20.44 106.16-20.44L106.16-20.44Q104.76-20.44 103.54-20.08Q102.32-19.72 101.42-19Q100.52-18.28 100.00-17.22Q99.48-16.16 99.48-14.76L99.48-14.76Q99.48-12.84 100.36-11.72Q101.24-10.60 102.56-9.92Q103.88-9.24 105.42-8.82Q106.96-8.40 108.28-7.90Q109.60-7.40 110.48-6.64Q111.36-5.88 111.36-4.56L111.36-4.56Q111.36-4 111.18-3.40Q111.00-2.80 110.52-2.30Q110.04-1.80 109.20-1.46Q108.36-1.12 107.08-1.12L107.08-1.12Q105.48-1.12 104.38-1.62Q103.28-2.12 102.58-2.82Q101.88-3.52 101.58-4.24Q101.28-4.96 101.28-5.44L101.28-5.44L98.68-5.44Q98.68-4.32 99.20-3.26Q99.72-2.20 100.78-1.36Q101.84-0.52 103.38-0.02Q104.92 0.48 106.96 0.48L106.96 0.48Q110.64 0.48 112.50-1.14Q114.36-2.76 114.36-5.40L114.36-5.40Q114.36-7.32 113.46-8.48Q112.56-9.64 111.20-10.34Q109.84-11.04 108.26-11.48Q106.68-11.92 105.32-12.40Q103.96-12.88 103.06-13.56Q102.16-14.24 102.16-15.48L102.16-15.48Q102.16-16 102.36-16.58Q102.56-17.16 103.04-17.66Q103.52-18.16 104.32-18.50Q105.12-18.84 106.32-18.84L106.32-18.84Q107.52-18.84 108.40-18.50Q109.28-18.16 109.88-17.66Q110.48-17.16 110.76-16.56Q111.04-15.96 111.04-15.44L111.04-15.44Z M123.16-28L119.76-28L119.76 0L123.16 0L123.16-11.56Q123.16-12.36 123.28-13.52Q123.40-14.68 123.94-15.76Q124.48-16.84 125.56-17.62Q126.64-18.40 128.56-18.40L128.56-18.40Q129.92-18.40 130.74-17.90Q131.56-17.40 132.00-16.56Q132.44-15.72 132.58-14.60Q132.72-13.48 132.72-12.28L132.72-12.28L132.72 0L136.12 0L136.12-13.20Q136.12-15.44 135.48-16.86Q134.84-18.28 133.88-19.08Q132.92-19.88 131.78-20.16Q130.64-20.44 129.60-20.44L129.60-20.44Q128.20-20.44 126.66-19.90Q125.12-19.36 123.76-17.84L123.76-17.84L123.32-17.28L123.16-17.28L123.16-28Z M6.60 31.92L6.60 14L3.20 14L3.20 42L6.60 42L6.60 34.48L8.92 32.12L16.96 42L21.44 42L11.40 29.68L19.04 22L16.44 22L6.60 31.92Z M44.16 32.04L44.16 32.04Q44.16 34.12 43.44 36.02Q42.72 37.92 41.38 39.36Q40.04 40.80 38.14 41.64Q36.24 42.48 33.88 42.48L33.88 42.48Q31.48 42.48 29.54 41.62Q27.60 40.76 26.26 39.32Q24.92 37.88 24.18 35.98Q23.44 34.08 23.44 32.04L23.44 32.04Q23.44 29.96 24.18 28.06Q24.92 26.16 26.26 24.72Q27.60 23.28 29.54 22.42Q31.48 21.56 33.88 21.56L33.88 21.56Q36.24 21.56 38.14 22.42Q40.04 23.28 41.38 24.72Q42.72 26.16 43.44 28.06Q44.16 29.96 44.16 32.04ZM40.36 32.04L40.36 32.04Q40.36 29.24 39.76 27.50Q39.16 25.76 38.20 24.80Q37.24 23.84 36.08 23.50Q34.92 23.16 33.84 23.16L33.84 23.16Q32.76 23.16 31.60 23.50Q30.44 23.84 29.46 24.80Q28.48 25.76 27.86 27.50Q27.24 29.24 27.24 32.04L27.24 32.04Q27.24 34.80 27.86 36.54Q28.48 38.28 29.46 39.24Q30.44 40.20 31.60 40.54Q32.76 40.88 33.84 40.88L33.84 40.88Q34.92 40.88 36.08 40.54Q37.24 40.20 38.20 39.24Q39.16 38.28 39.76 36.54Q40.36 34.80 40.36 32.04Z M62.68 42L66.08 42L66.08 29.04Q66.08 28.32 65.96 27.06Q65.84 25.80 65.18 24.58Q64.52 23.36 63.08 22.46Q61.64 21.56 59 21.56L59 21.56Q57.84 21.52 56.40 22.02Q54.96 22.52 53.56 23.92L53.56 23.92L52.92 24.56L52.76 24.56L52.76 22L49.36 22L49.36 42L52.76 42L52.76 29.64Q52.76 28.08 53.20 26.96Q53.64 25.84 54.40 25.08Q55.16 24.32 56.14 23.96Q57.12 23.60 58.16 23.60L58.16 23.60Q59.84 23.60 60.76 24.26Q61.68 24.92 62.10 25.80Q62.52 26.68 62.60 27.56Q62.68 28.44 62.68 28.84L62.68 28.84L62.68 42Z M90.36 42L90.36 14L86.96 14L86.96 25.28L86.80 25.28Q86.40 24.24 85.74 23.54Q85.08 22.84 84.24 22.40Q83.40 21.96 82.46 21.76Q81.52 21.56 80.56 21.56L80.56 21.56Q78.56 21.56 76.88 22.30Q75.20 23.04 73.98 24.40Q72.76 25.76 72.08 27.68Q71.40 29.60 71.40 31.96L71.40 31.96Q71.40 34.36 72.08 36.30Q72.76 38.24 73.98 39.62Q75.20 41 76.88 41.74Q78.56 42.48 80.56 42.48L80.56 42.48Q85.28 42.48 86.80 38.76L86.80 38.76L86.96 38.76L86.96 42L90.36 42ZM86.96 30.52L86.96 34Q86.96 35.32 86.52 36.50Q86.08 37.68 85.34 38.54Q84.60 39.40 83.58 39.90Q82.56 40.40 81.40 40.40L81.40 40.40Q80.12 40.40 79 39.94Q77.88 39.48 77.04 38.48Q76.20 37.48 75.70 35.88Q75.20 34.28 75.20 32.04L75.20 32.04Q75.20 29.76 75.70 28.16Q76.20 26.56 77.06 25.54Q77.92 24.52 79.04 24.06Q80.16 23.60 81.40 23.60L81.40 23.60Q82.52 23.60 83.52 24.06Q84.52 24.52 85.28 25.42Q86.04 26.32 86.50 27.60Q86.96 28.88 86.96 30.52L86.96 30.52Z M100.16 22L96.76 22L96.76 35Q96.76 35.72 96.90 36.98Q97.04 38.24 97.72 39.46Q98.40 40.68 99.86 41.58Q101.32 42.48 103.96 42.48L103.96 42.48Q105.12 42.52 106.50 42.02Q107.88 41.52 109.28 40.12L109.28 40.12L109.92 39.48L110.08 39.48L110.08 42L113.48 42L113.48 22L110.08 22L110.08 34.40Q110.08 35.96 109.64 37.08Q109.20 38.20 108.48 38.94Q107.76 39.68 106.80 40.04Q105.84 40.40 104.80 40.40L104.80 40.40Q103.12 40.40 102.18 39.74Q101.24 39.08 100.78 38.20Q100.32 37.32 100.24 36.46Q100.16 35.60 100.16 35.20L100.16 35.20L100.16 22Z M123.40 22L120.00 22L120.00 42L123.40 42L123.40 29.92Q123.40 28.28 123.78 27.14Q124.16 26 124.76 25.28Q125.36 24.56 126.08 24.24Q126.80 23.92 127.48 23.92L127.48 23.92Q128.40 23.92 129.18 24.52Q129.96 25.12 130.32 25.64L130.32 25.64L131.68 23.16Q131.32 22.68 130.82 22.36Q130.32 22.04 129.82 21.86Q129.32 21.68 128.90 21.62Q128.48 21.56 128.28 21.56L128.28 21.56Q126.60 21.56 125.48 22.48Q124.36 23.40 123.64 25.20L123.64 25.20L123.40 25.20L123.40 22Z M138.68 22L135.28 22L135.28 35Q135.28 35.72 135.42 36.98Q135.56 38.24 136.24 39.46Q136.92 40.68 138.38 41.58Q139.84 42.48 142.48 42.48L142.48 42.48Q143.64 42.52 145.02 42.02Q146.40 41.52 147.80 40.12L147.80 40.12L148.44 39.48L148.60 39.48L148.60 42L152 42L152 22L148.60 22L148.60 34.40Q148.60 35.96 148.16 37.08Q147.72 38.20 147 38.94Q146.28 39.68 145.32 40.04Q144.36 40.40 143.32 40.40L143.32 40.40Q141.64 40.40 140.70 39.74Q139.76 39.08 139.30 38.20Q138.84 37.32 138.76 36.46Q138.68 35.60 138.68 35.20L138.68 35.20L138.68 22Z"/></g>
</svg>
</g><g opacity="1" transform="rotate(0 233.7783 158)">
<svg width="3" height="150" x="233.7783" y="158" version="1.1" preserveAspectRatio="none" viewBox="0 0 3 150">
  <defs><rect x="0" y="0" width="3" height="150" rx="0px" ry="0px" id="id-tBXipXk0b1715323505385"></rect></defs><use class="companyName shapeStroke-str" style="stroke-width:0;" xlink:href="#id-tBXipXk0b1715323505385"></use>
</svg>
</g></svg></svg>